<svg xmlns="http://www.w3.org/2000/svg" viewBox="0 -0.5 22 24" shape-rendering="crispEdges">
<metadata>Web Icon: iamsebas.xyz</metadata>
<path stroke="#fa4601" d="M5 0h1M5 1h1M4 2h1M3 3h2M1 4h1M3 4h1M0 5h3M4 5h1M0 6h2M3 6h2M1 7h4M0 8h1M3 8h2M0 9h1M4 9h1M9 9h1M0 10h7M10 10h1M2 11h1M4 11h1M6 11h3M2 12h1M4 12h2M7 12h1M10 12h1M2 13h5M8 13h1M10 13h1M5 14h4M10 14h1M9 16h1M8 17h2M8 18h1M10 18h1M9 19h2M9 20h1M9 21h1" />
<path stroke="#d40001" d="M13 0h2M15 1h2M15 2h4M16 3h3M16 4h3M21 4h1M16 5h6M16 6h3M20 6h2M17 7h1M19 7h2M16 8h3M21 8h1M16 9h3M20 9h2M12 10h1M15 10h3M20 10h1M13 11h3M17 11h3M12 12h4M12 13h2M15 13h4M13 14h1M16 14h1M12 15h1M11 16h2M11 17h1M12 18h2M12 20h2M14 22h1" />
<path stroke="#fa4601" d="M4 1h1M3 5h1M2 6h1M2 9h1M5 9h1M3 11h1M8 12h1M7 13h1M9 14h1" />
<path stroke="#d40001" d="M14 1h1M17 1h1M20 4h1M19 8h1M16 11h1M18 12h1M14 13h1M13 17h1" />
<path stroke="#fa4601" d="M1 3h1M2 8h1M1 9h1M5 11h1M9 13h1" />
<path stroke="#d40001" d="M19 6h1M18 7h1M19 9h1M18 10h1M16 12h1M12 19h1" />
<path stroke="#d40001" d="M16 7h1M19 10h1M12 14h1M15 14h1M12 17h1M14 21h1" />
<path stroke="#fa4601" d="M3 9h1M1 11h1M10 11h1M3 12h1M6 12h1M9 12h1M6 15h1" />
<path stroke="#fb2000" d="M11 10h1M9 15h1M11 19h1M11 22h1M10 23h1" />
<path stroke="#fb2000" d="M11 11h1M11 14h1" />
<path stroke="#fb2000" d="M11 12h1M11 13h1M10 15h1M10 16h1M10 17h1M11 18h1M11 20h1M11 21h1" />
<path stroke="#fb2000" d="M11 15h1" />
</svg>